<svg xmlns="http://www.w3.org/2000/svg" width="1200" height="1600" viewBox="0 0 1200 1600">
  <defs>
    <filter id="shadow" x="-20%" y="-20%" width="140%" height="140%">
      <feDropShadow dx="0" dy="14" stdDeviation="24" flood-color="#18251f" flood-opacity="0.12"/>
    </filter>
    <filter id="soft" x="-20%" y="-20%" width="140%" height="140%">
      <feDropShadow dx="0" dy="4" stdDeviation="8" flood-color="#18251f" flood-opacity="0.10"/>
    </filter>
    <symbol id="check" viewBox="0 0 24 24">
      <path d="M5 12.5 9.2 17 19 7" fill="none" stroke="currentColor" stroke-width="2.4" stroke-linecap="round" stroke-linejoin="round"/>
    </symbol>
    <symbol id="chevron" viewBox="0 0 24 24">
      <path d="m9 6 6 6-6 6" fill="none" stroke="currentColor" stroke-width="2.2" stroke-linecap="round" stroke-linejoin="round"/>
    </symbol>
    <symbol id="bell" viewBox="0 0 24 24">
      <path d="M6.5 16.5h11l-1.4-2.2V10a4.1 4.1 0 0 0-8.2 0v4.3L6.5 16.5Z" fill="none" stroke="currentColor" stroke-width="1.9" stroke-linejoin="round"/>
      <path d="M10 19h4" fill="none" stroke="currentColor" stroke-width="1.9" stroke-linecap="round"/>
    </symbol>
    <symbol id="shield" viewBox="0 0 24 24">
      <path d="M12 3.5 19 6v5.2c0 4.2-2.6 7.3-7 9.3-4.4-2-7-5.1-7-9.3V6l7-2.5Z" fill="none" stroke="currentColor" stroke-width="1.9" stroke-linejoin="round"/>
      <path d="m8.7 12 2.1 2.1 4.5-4.6" fill="none" stroke="currentColor" stroke-width="1.9" stroke-linecap="round" stroke-linejoin="round"/>
    </symbol>
    <symbol id="battery" viewBox="0 0 24 24">
      <rect x="3.5" y="7" width="15.5" height="10" rx="2" fill="none" stroke="currentColor" stroke-width="1.9"/>
      <path d="M21 10v4M12.5 8.5 9.5 12h3l-2 3.5" fill="none" stroke="currentColor" stroke-width="1.9" stroke-linecap="round" stroke-linejoin="round"/>
    </symbol>
    <symbol id="live" viewBox="0 0 24 24">
      <path d="M3.5 12h3l2.2-5 4.2 10 2.4-5h5.2" fill="none" stroke="currentColor" stroke-width="1.9" stroke-linecap="round" stroke-linejoin="round"/>
    </symbol>
    <symbol id="sync" viewBox="0 0 24 24">
      <path d="M18.5 8A7.2 7.2 0 0 0 6 6.5L4 9M5.5 16A7.2 7.2 0 0 0 18 17.5l2-2.5" fill="none" stroke="currentColor" stroke-width="1.9" stroke-linecap="round"/>
      <path d="M4 5.5V9h3.5M20 18.5V15h-3.5" fill="none" stroke="currentColor" stroke-width="1.9" stroke-linecap="round" stroke-linejoin="round"/>
    </symbol>
    <symbol id="message" viewBox="0 0 24 24">
      <path d="M5 5.5h14a2 2 0 0 1 2 2v8a2 2 0 0 1-2 2h-8l-4.5 3v-3H5a2 2 0 0 1-2-2v-8a2 2 0 0 1 2-2Z" fill="none" stroke="currentColor" stroke-width="1.9" stroke-linejoin="round"/>
    </symbol>
    <symbol id="phone" viewBox="0 0 24 24">
      <path d="M7.1 3.7 10 8 8.2 9.8a15.2 15.2 0 0 0 6 6l1.8-1.8 4.3 2.9-.8 3.1c-.2.7-.8 1.1-1.5 1-8-.9-14.1-7-15-15-.1-.7.3-1.3 1-1.5l3.1-.8Z" fill="none" stroke="currentColor" stroke-width="1.8" stroke-linecap="round" stroke-linejoin="round"/>
    </symbol>
    <symbol id="video" viewBox="0 0 24 24">
      <rect x="3" y="6" width="13" height="12" rx="2.5" fill="none" stroke="currentColor" stroke-width="1.9"/>
      <path d="m16 10 5-3v10l-5-3" fill="none" stroke="currentColor" stroke-width="1.9" stroke-linejoin="round"/>
    </symbol>
    <style>
      .ui { font-family: Roboto, "Noto Sans SC", "PingFang SC", system-ui, sans-serif; fill: #26332d; }
      .title { font-size: 30px; font-weight: 720; letter-spacing: -0.5px; }
      .section { font-size: 16px; font-weight: 700; fill: #53605a; letter-spacing: 0.6px; }
      .hero-title { font-size: 30px; font-weight: 760; letter-spacing: -0.4px; }
      .body { font-size: 16px; font-weight: 470; fill: #4d5a54; }
      .row-title { font-size: 17px; font-weight: 650; }
      .support { font-size: 13px; font-weight: 450; fill: #69756f; }
      .status { font-size: 13px; font-weight: 650; }
      .button { font-size: 16px; font-weight: 700; }
      .small-button { font-size: 13px; font-weight: 650; }
      .caption { font-size: 13px; font-weight: 520; fill: #5f6d66; }
    </style>
  </defs>

  <rect width="1200" height="1600" fill="#e8ede7"/>
  <circle cx="1020" cy="92" r="150" fill="#c9e6d6" opacity="0.48"/>
  <circle cx="136" cy="1510" r="210" fill="#ede2bd" opacity="0.55"/>

  <text x="70" y="72" class="ui" font-size="34" font-weight="760">WeModern 首页布局</text>
  <text x="70" y="108" class="ui" font-size="17" font-weight="470" fill="#5c6963">Material 3 Expressive · 状态驱动的权限设置</text>

  <rect x="222" y="128" width="196" height="42" rx="21" fill="#3a4a42"/>
  <text x="320" y="155" text-anchor="middle" font-family="Roboto, Noto Sans SC, sans-serif" font-size="15" font-weight="700" fill="#f4f7f1">首次设置</text>
  <rect x="782" y="128" width="196" height="42" rx="21" fill="#2c6d50"/>
  <text x="880" y="155" text-anchor="middle" font-family="Roboto, Noto Sans SC, sans-serif" font-size="15" font-weight="700" fill="#f1fff7">全部就绪</text>

  <!-- Left phone -->
  <rect x="70" y="182" width="500" height="1350" rx="54" fill="#f8f8f1" stroke="#d2d8d2" stroke-width="2" filter="url(#shadow)"/>
  <rect x="247" y="196" width="146" height="30" rx="15" fill="#1a211e"/>
  <text x="103" y="224" class="ui" font-size="13" font-weight="650">9:41</text>
  <text x="537" y="224" text-anchor="end" class="ui" font-size="13" font-weight="650">5G  91%</text>

  <text x="105" y="273" class="ui title">WeModern</text>
  <circle cx="526" cy="259" r="24" fill="#ecefe8"/>
  <circle cx="519" cy="259" r="2.4" fill="#526059"/>
  <circle cx="526" cy="259" r="2.4" fill="#526059"/>
  <circle cx="533" cy="259" r="2.4" fill="#526059"/>

  <path d="M137 302H503Q535 302 535 334V514Q535 534 515 534H137Q105 534 105 502V334Q105 302 137 302Z" fill="#efe1ad"/>
  <rect x="133" y="330" width="56" height="56" rx="20" fill="#364a40"/>
  <text x="161" y="367" text-anchor="middle" font-family="Roboto, sans-serif" font-size="24" font-weight="800" fill="#f9fff9">2</text>
  <text x="207" y="353" class="ui caption" fill="#5d5a42">必要设置</text>
  <text x="207" y="383" class="ui hero-title">还差 2 步</text>
  <text x="133" y="420" class="ui body">完成后即可接管微信消息与通话通知</text>
  <rect x="133" y="444" width="86" height="6" rx="3" fill="#315943"/>
  <rect x="225" y="444" width="86" height="6" rx="3" fill="#b9ad7e"/>
  <rect x="317" y="444" width="86" height="6" rx="3" fill="#b9ad7e"/>
  <rect x="133" y="470" width="374" height="50" rx="25" fill="#2e654a" filter="url(#soft)"/>
  <use href="#shield" x="224" y="483" width="24" height="24" color="#effff6"/>
  <text x="262" y="502" class="button" fill="#effff6">开启通知使用权</text>

  <text x="105" y="577" class="ui section">设置</text>

  <rect x="105" y="597" width="430" height="94" rx="26" fill="#d9eee2"/>
  <rect x="125" y="618" width="52" height="52" rx="18" fill="#2f654a"/>
  <use href="#shield" x="139" y="632" width="24" height="24" color="#effff6"/>
  <text x="193" y="636" class="ui row-title">通知使用权</text>
  <text x="193" y="662" class="ui support">读取并重写微信通知 · 必需</text>
  <text x="488" y="648" text-anchor="end" class="ui status" fill="#6f4d00">待开启</text>
  <use href="#chevron" x="494" y="636" width="24" height="24" color="#6b766f"/>

  <rect x="105" y="695" width="430" height="94" rx="18" fill="#eff1eb"/>
  <rect x="125" y="716" width="52" height="52" rx="18" fill="#e1e5de"/>
  <use href="#bell" x="139" y="730" width="24" height="24" color="#53615a"/>
  <text x="193" y="734" class="ui row-title">发送通知</text>
  <text x="193" y="760" class="ui support">展示重写后的消息与来电 · 必需</text>
  <text x="488" y="746" text-anchor="end" class="ui status" fill="#6f4d00">待开启</text>
  <use href="#chevron" x="494" y="734" width="24" height="24" color="#6b766f"/>

  <rect x="105" y="793" width="430" height="94" rx="18" fill="#eff1eb"/>
  <rect x="125" y="814" width="52" height="52" rx="18" fill="#e1e5de"/>
  <use href="#live" x="139" y="828" width="24" height="24" color="#53615a"/>
  <text x="193" y="832" class="ui row-title">Live Update</text>
  <text x="193" y="858" class="ui support">实时显示通话进度 · 推荐</text>
  <text x="488" y="844" text-anchor="end" class="ui status" fill="#6f5a20">推荐</text>
  <use href="#chevron" x="494" y="832" width="24" height="24" color="#6b766f"/>

  <rect x="105" y="891" width="430" height="94" rx="26" fill="#eff1eb"/>
  <rect x="125" y="912" width="52" height="52" rx="18" fill="#e1e5de"/>
  <use href="#battery" x="139" y="926" width="24" height="24" color="#53615a"/>
  <text x="193" y="930" class="ui row-title">不受限电池使用</text>
  <text x="193" y="956" class="ui support">提升后台运行可靠性 · 推荐</text>
  <text x="508" y="942" text-anchor="end" class="ui status" fill="#57645e">推荐</text>

  <text x="105" y="1035" class="ui section">高级功能</text>
  <rect x="105" y="1055" width="430" height="100" rx="28" fill="#eff1eb"/>
  <rect x="125" y="1079" width="52" height="52" rx="18" fill="#e1e5de"/>
  <use href="#sync" x="139" y="1093" width="24" height="24" color="#53615a"/>
  <text x="193" y="1095" class="ui row-title">同步移除</text>
  <text x="193" y="1121" class="ui support">撤回通知时立即清理 · 可选</text>
  <text x="488" y="1107" text-anchor="end" class="ui status" fill="#6f5a20">需 ADB</text>
  <use href="#chevron" x="494" y="1095" width="24" height="24" color="#6b766f"/>

  <text x="105" y="1205" class="ui section">测试通知</text>
  <text x="535" y="1205" text-anchor="end" class="ui caption">完成设置后可用</text>
  <rect x="105" y="1225" width="430" height="66" rx="28" fill="#ecefe9"/>
  <rect x="111" y="1231" width="135" height="54" rx="23" fill="#e0e4dd"/>
  <use href="#message" x="135" y="1246" width="23" height="23" color="#8a938e"/>
  <text x="170" y="1266" class="ui small-button" fill="#858e89">消息</text>
  <rect x="252" y="1231" width="135" height="54" rx="23" fill="#e0e4dd"/>
  <use href="#phone" x="276" y="1246" width="23" height="23" color="#8a938e"/>
  <text x="311" y="1266" class="ui small-button" fill="#858e89">语音</text>
  <rect x="393" y="1231" width="136" height="54" rx="23" fill="#e0e4dd"/>
  <use href="#video" x="417" y="1246" width="23" height="23" color="#8a938e"/>
  <text x="452" y="1266" class="ui small-button" fill="#858e89">视频</text>

  <text x="320" y="1468" text-anchor="middle" class="ui caption">WeModern 0.21</text>
  <rect x="262" y="1493" width="116" height="5" rx="2.5" fill="#26332d" opacity="0.62"/>

  <!-- Right phone -->
  <rect x="630" y="182" width="500" height="1350" rx="54" fill="#f8f8f1" stroke="#d2d8d2" stroke-width="2" filter="url(#shadow)"/>
  <rect x="807" y="196" width="146" height="30" rx="15" fill="#1a211e"/>
  <text x="663" y="224" class="ui" font-size="13" font-weight="650">9:41</text>
  <text x="1097" y="224" text-anchor="end" class="ui" font-size="13" font-weight="650">5G  91%</text>

  <text x="665" y="273" class="ui title">WeModern</text>
  <circle cx="1086" cy="259" r="24" fill="#ecefe8"/>
  <circle cx="1079" cy="259" r="2.4" fill="#526059"/>
  <circle cx="1086" cy="259" r="2.4" fill="#526059"/>
  <circle cx="1093" cy="259" r="2.4" fill="#526059"/>

  <path d="M697 302H1063Q1095 302 1095 334V514Q1095 534 1075 534H697Q665 534 665 502V334Q665 302 697 302Z" fill="#bce8ce"/>
  <rect x="693" y="330" width="56" height="56" rx="20" fill="#2f654a"/>
  <use href="#check" x="709" y="346" width="24" height="24" color="#effff6"/>
  <text x="767" y="353" class="ui caption" fill="#3c6651">运行状态</text>
  <text x="767" y="383" class="ui hero-title">已就绪</text>
  <text x="693" y="420" class="ui body">微信通知重写正在运行</text>
  <rect x="693" y="449" width="126" height="38" rx="19" fill="#f0fff6" opacity="0.82"/>
  <use href="#check" x="709" y="458" width="20" height="20" color="#2f654a"/>
  <text x="739" y="474" class="ui status" fill="#2f654a">通知重写</text>
  <rect x="829" y="449" width="132" height="38" rx="19" fill="#f0fff6" opacity="0.82"/>
  <use href="#check" x="845" y="458" width="20" height="20" color="#2f654a"/>
  <text x="875" y="474" class="ui status" fill="#2f654a">Live Update</text>
  <text x="693" y="512" class="ui caption" fill="#4c695b">刚刚完成状态检查</text>

  <text x="665" y="577" class="ui section">设置</text>

  <rect x="665" y="597" width="430" height="94" rx="26" fill="#eff1eb"/>
  <rect x="685" y="618" width="52" height="52" rx="18" fill="#e1e5de"/>
  <use href="#shield" x="699" y="632" width="24" height="24" color="#53615a"/>
  <text x="753" y="636" class="ui row-title">通知使用权</text>
  <text x="753" y="662" class="ui support">读取并重写微信通知 · 必需</text>
  <use href="#check" x="1017" y="627" width="22" height="22" color="#2f654a"/>
  <text x="1070" y="646" text-anchor="end" class="ui status" fill="#2f654a">已开启</text>

  <rect x="665" y="695" width="430" height="94" rx="18" fill="#eff1eb"/>
  <rect x="685" y="716" width="52" height="52" rx="18" fill="#e1e5de"/>
  <use href="#bell" x="699" y="730" width="24" height="24" color="#53615a"/>
  <text x="753" y="734" class="ui row-title">发送通知</text>
  <text x="753" y="760" class="ui support">展示重写后的消息与来电 · 必需</text>
  <use href="#check" x="1017" y="725" width="22" height="22" color="#2f654a"/>
  <text x="1070" y="744" text-anchor="end" class="ui status" fill="#2f654a">已开启</text>

  <rect x="665" y="793" width="430" height="94" rx="18" fill="#eff1eb"/>
  <rect x="685" y="814" width="52" height="52" rx="18" fill="#e1e5de"/>
  <use href="#live" x="699" y="828" width="24" height="24" color="#53615a"/>
  <text x="753" y="832" class="ui row-title">Live Update</text>
  <text x="753" y="858" class="ui support">实时显示通话进度 · 推荐</text>
  <use href="#check" x="1017" y="823" width="22" height="22" color="#2f654a"/>
  <text x="1070" y="842" text-anchor="end" class="ui status" fill="#2f654a">已开启</text>

  <rect x="665" y="891" width="430" height="94" rx="26" fill="#eff1eb"/>
  <rect x="685" y="912" width="52" height="52" rx="18" fill="#e1e5de"/>
  <use href="#battery" x="699" y="926" width="24" height="24" color="#53615a"/>
  <text x="753" y="930" class="ui row-title">不受限电池使用</text>
  <text x="753" y="956" class="ui support">提升后台运行可靠性 · 推荐</text>
  <use href="#check" x="1017" y="921" width="22" height="22" color="#2f654a"/>
  <text x="1070" y="940" text-anchor="end" class="ui status" fill="#2f654a">已开启</text>

  <text x="665" y="1035" class="ui section">高级功能</text>
  <rect x="665" y="1055" width="430" height="100" rx="28" fill="#eff1eb"/>
  <rect x="685" y="1079" width="52" height="52" rx="18" fill="#dcece2"/>
  <use href="#sync" x="699" y="1093" width="24" height="24" color="#2f654a"/>
  <text x="753" y="1095" class="ui row-title">同步移除</text>
  <text x="753" y="1121" class="ui support">撤回通知时立即清理 · 可选</text>
  <use href="#check" x="1017" y="1086" width="22" height="22" color="#2f654a"/>
  <text x="1070" y="1105" text-anchor="end" class="ui status" fill="#2f654a">已就绪</text>
  <use href="#chevron" x="1061" y="1113" width="20" height="20" color="#7a857f"/>

  <text x="665" y="1205" class="ui section">测试通知</text>
  <text x="1095" y="1205" text-anchor="end" class="ui caption">选择一种类型</text>
  <rect x="665" y="1225" width="430" height="66" rx="28" fill="#e5ebe5"/>
  <rect x="671" y="1231" width="135" height="54" rx="23" fill="#f5f8f3"/>
  <use href="#message" x="695" y="1246" width="23" height="23" color="#315d48"/>
  <text x="730" y="1266" class="ui small-button" fill="#315d48">消息</text>
  <rect x="812" y="1231" width="135" height="54" rx="23" fill="#d8e8de"/>
  <use href="#phone" x="836" y="1246" width="23" height="23" color="#315d48"/>
  <text x="871" y="1266" class="ui small-button" fill="#315d48">语音</text>
  <rect x="953" y="1231" width="136" height="54" rx="23" fill="#d8e8de"/>
  <use href="#video" x="977" y="1246" width="23" height="23" color="#315d48"/>
  <text x="1012" y="1266" class="ui small-button" fill="#315d48">视频</text>

  <text x="880" y="1468" text-anchor="middle" class="ui caption">WeModern 0.21</text>
  <rect x="822" y="1493" width="116" height="5" rx="2.5" fill="#26332d" opacity="0.62"/>
</svg>
